<?xml version="1.0" encoding="UTF-8"?>
<svg width="80px" height="80px" viewBox="0 0 80 80" version="1.1" xmlns="http://www.w3.org/2000/svg" xmlns:xlink="http://www.w3.org/1999/xlink">
    <!-- Generator: sketchtool 63.1 (101010) - https://sketch.com -->
    <title>B30C1707-2C6A-4DEE-80E9-D77D9D637E3C</title>
    <desc>Created with sketchtool.</desc>
    <g id="Mini-Site-for-ExpressEmail" stroke="none" stroke-width="1" fill="none" fill-rule="evenodd">
        <g transform="translate(-220.000000, -587.000000)" fill-rule="nonzero" id="Group-46">
            <g transform="translate(130.000000, 497.000000)">
                <g id="Group-45" transform="translate(40.000000, 40.000000)">
                    <g id="Group-44">
                        <g id="send" transform="translate(50.000000, 50.000000)">
                            <path d="M19.047619,76.1904762 C18.6625714,76.1904762 26.7540952,43.2421905 26.7540952,43.2421905 C26.9512762,42.6060381 27.468381,42.1186857 28.1156952,41.9605714 C28.7611619,41.7968762 29.4475429,41.9921905 29.9181524,42.4628 L43.2514857,55.7961333 C43.6421143,56.1867619 43.8430095,56.7261905 43.8039429,57.2786476 C43.7648762,57.8292381 43.489581,58.3352 43.0468762,58.6663048 L20.1897333,75.8091619 C19.8530476,76.063981 19.4494095,76.1904762 19.047619,76.1904762 Z" id="Path" fill="#7F7F7F"></path>
                            <path d="M62.8422667,80 C62.4367619,80 62.0331238,79.8697905 61.7001524,79.6186667 L0.762647619,33.904381 C0.210190476,33.4914286 -0.0744,32.8143429 0.0167428571,32.1316952 C0.106038095,31.4490286 0.558038095,30.8686667 1.19792381,30.611981 L77.3884,0.135790476 C78.037581,-0.120914286 78.7779048,-0.0092952381 79.313619,0.440857143 C79.8512,0.887295238 80.1004571,1.59226667 79.9628,2.27864762 L64.7098286,78.4691238 C64.5814857,79.1108571 64.1332,79.6409905 63.521219,79.8753714 C63.3017143,79.9590857 63.0710476,80 62.8422667,80 Z" id="Path" fill="#E6E6E6"></path>
                            <path d="M19.0494857,76.1904762 C18.947181,76.1904762 18.8448762,76.1830286 18.7425714,76.1662857 C17.8199429,76.015619 17.1428571,75.2194857 17.1428571,74.2857143 L17.1428571,45.7142857 C17.1428571,45.1116 17.4293143,44.5442667 17.9129524,44.1852762 L76.9605714,0.375752381 C77.7697143,-0.225066667 78.9006667,-0.0911428571 79.5498667,0.673371429 C80.1990476,1.4416 80.1395238,2.58 79.4159429,3.27754286 L27.0448571,53.6208571 L20.8537905,74.888381 C20.5915238,75.675219 19.8567619,76.1904762 19.0494857,76.1904762 Z" id="Path" fill="#B3B3B3"></path>
                        </g>
                    </g>
                </g>
            </g>
        </g>
    </g>
</svg>